<svg width="700" height="420" viewBox="0 0 700 420" fill="none" xmlns="http://www.w3.org/2000/svg">
<g opacity="0.3">
<path d="M330.916 104.871C262.391 71.5174 172.784 18.8884 0.504883 94.9797C1.9746 117.246 5.55704 138.96 11.0226 159.892C46.4795 149.863 78.3541 145.216 109.494 145.216C167.961 145.216 223.856 161.41 296.24 188.185C358.106 211.095 470.126 258.295 639.328 169.691C558.493 220.526 498.005 241.366 429.387 241.366C390.21 241.366 349.334 233.775 303.726 216.891C241.585 193.889 191.523 182.48 141.552 182.48C104.258 182.48 67.0556 188.921 24.893 201.48C76.6088 329.51 202.545 420.001 349.885 420.001C525.654 420.001 690.63 284.288 700 81.0403C607.867 208.841 426.953 151.657 330.916 104.871Z" fill="#92C0E9"/>
<path d="M0 73.8168C152.667 -13.6376 267.81 32.2289 324.119 62.5918C439.951 125.066 659.215 181.697 694.902 6.88042C642.911 133.071 501.45 99.4413 320.72 18.4735C272.541 -3.05653 143.114 -25.3227 0 73.8168Z" fill="#92C0E9"/>
</g>
</svg>
