<svg width="152" height="152" viewBox="0 0 152 152" fill="none" xmlns="http://www.w3.org/2000/svg">
<mask id="mask0_180_2842" style="mask-type:alpha" maskUnits="userSpaceOnUse" x="0" y="0" width="152" height="152">
<rect x="0.5" y="0.5" width="151" height="151" fill="white" stroke="#EDE0D5"/>
</mask>
<g mask="url(#mask0_180_2842)">
<path d="M37.6272 57.9134C36.8441 57.9134 36.213 57.2697 36.213 56.488C36.213 55.7063 36.8517 55.0625 37.6272 55.0625C38.4103 55.0625 39.0413 55.7063 39.0413 56.488C39.0413 57.2697 38.4027 57.9134 37.6272 57.9134ZM37.6272 55.3844C37.0265 55.3844 36.5323 55.8825 36.5323 56.488C36.5323 57.0934 37.0265 57.5916 37.6272 57.5916C38.2278 57.5916 38.722 57.0934 38.722 56.488C38.722 55.8825 38.2278 55.3844 37.6272 55.3844Z" fill="#9C182F"/>
<path d="M38.8055 56.9958L38.6018 57.2534L39.6122 58.0651L39.8158 57.8075L38.8055 56.9958Z" fill="#9C182F"/>
<path d="M38.736 54.2646L38.1592 55.3438L38.4469 55.5001L39.0236 54.4209L38.736 54.2646Z" fill="#9C182F"/>
<path d="M35.1988 55.0597L35.0707 55.3628L36.4903 55.9721L36.6183 55.669L35.1988 55.0597Z" fill="#9C182F"/>
<path d="M37.9273 57.7883L37.605 57.8433L37.9767 60.0566L38.2989 60.0016L37.9273 57.7883Z" fill="#9C182F"/>
<path d="M36.6581 57.1702L34.2032 57.6538L34.2659 57.9771L36.7208 57.4935L36.6581 57.1702Z" fill="#9C182F"/>
<path d="M40.0853 55.6531L38.8484 55.9038L38.9128 56.2268L40.1497 55.9761L40.0853 55.6531Z" fill="#9C182F"/>
<path d="M37.0244 53.8892L36.7087 53.9746L37.0497 55.2547L37.3653 55.1693L37.0244 53.8892Z" fill="#9C182F"/>
<path d="M34.4958 58.2014L34.3292 58.4849L37.5339 60.3992L37.7005 60.1158L34.4958 58.2014Z" fill="#9C182F"/>
<path d="M15.2744 57.8436C15.0691 57.8436 14.8639 57.7976 14.6662 57.7056C13.9591 57.3684 13.655 56.5177 13.9895 55.805C14.324 55.0923 15.1756 54.7857 15.8751 55.1229C16.2172 55.2839 16.4757 55.5751 16.6049 55.9353C16.7342 56.2955 16.7114 56.6863 16.5517 57.0312C16.316 57.537 15.8066 57.8436 15.2744 57.8436ZM15.282 55.3069C14.8715 55.3069 14.4761 55.5368 14.2936 55.9353C14.0351 56.4871 14.2708 57.1462 14.8106 57.4067C15.3581 57.6673 16.0119 57.4297 16.2704 56.8856C16.3921 56.6174 16.4073 56.3185 16.3084 56.0426C16.2096 55.7667 16.0119 55.5444 15.7458 55.4142C15.5937 55.3452 15.4341 55.3069 15.282 55.3069Z" fill="#9C182F"/>
<path d="M17.4013 54.986L16.2415 55.5596L16.3853 55.8554L17.5452 55.2817L17.4013 54.986Z" fill="#9C182F"/>
<path d="M14.0311 54.2572L13.768 54.4526L14.4891 55.4396L14.7521 55.2442L14.0311 54.2572Z" fill="#9C182F"/>
<path d="M14.1188 56.9877L12.964 58.019L13.1806 58.2657L14.3354 57.2344L14.1188 56.9877Z" fill="#9C182F"/>
<path d="M16.5743 56.6941L16.4857 57.0112L18.6297 57.6205L18.7184 57.3034L16.5743 56.6941Z" fill="#9C182F"/>
<path d="M15.4816 57.5824L14.865 60.0259L15.1817 60.1071L15.7983 57.6637L15.4816 57.5824Z" fill="#9C182F"/>
<path d="M15.5885 53.8138L15.2837 55.0479L15.6008 55.1275L15.9056 53.8935L15.5885 53.8138Z" fill="#9C182F"/>
<path d="M12.6983 55.8551L12.6397 56.1792L13.9332 56.4167L13.9918 56.0926L12.6983 55.8551Z" fill="#9C182F"/>
<path d="M18.5745 57.8971L15.4853 59.9951L15.6678 60.2684L18.757 58.1704L18.5745 57.8971Z" fill="#9C182F"/>
<path d="M4.21205 77.5016C4.12842 77.5016 4.03718 77.4939 3.94595 77.4786C3.5734 77.4096 3.25407 77.195 3.03359 76.8808C2.8207 76.5666 2.73707 76.1834 2.8131 75.8079C2.88153 75.4324 3.09441 75.1105 3.40614 74.8882C3.71786 74.6736 4.09801 74.5893 4.47055 74.666C4.8431 74.735 5.16242 74.9495 5.38291 75.2638C5.59579 75.578 5.67943 75.9612 5.6034 76.3367C5.53497 76.7122 5.32209 77.0341 5.01037 77.2564C4.77467 77.4096 4.49336 77.5016 4.21205 77.5016ZM4.20445 74.9649C3.98396 74.9649 3.77108 75.0338 3.58861 75.1565C3.34531 75.3251 3.18565 75.5703 3.13243 75.8615C3.07921 76.1528 3.14003 76.444 3.3073 76.6892C3.47456 76.9345 3.71786 77.0954 4.00677 77.1491C4.29568 77.2027 4.5846 77.1414 4.82789 76.9728C5.07119 76.8042 5.23085 76.5589 5.28407 76.2677C5.33729 75.9765 5.27647 75.6853 5.1092 75.44C4.94194 75.1948 4.69864 75.0338 4.40973 74.9802C4.3413 74.9725 4.27288 74.9649 4.20445 74.9649Z" fill="#9C182F"/>
<path d="M4.05918 73.4949L3.96619 74.7939L4.29214 74.8177L4.38513 73.5186L4.05918 73.4949Z" fill="#9C182F"/>
<path d="M2.94326 75.9415L1.73419 76.0718L1.76893 76.3993L2.978 76.269L2.94326 75.9415Z" fill="#9C182F"/>
<path d="M4.44488 77.3029L4.12445 77.3677L4.42792 78.8926L4.74835 78.8278L4.44488 77.3029Z" fill="#9C182F"/>
<path d="M6.70604 73.529L5.10522 75.0894L5.33231 75.3263L6.93312 73.7659L6.70604 73.529Z" fill="#9C182F"/>
<path d="M5.54742 76.2505L5.31824 76.4854L7.10077 78.253L7.32996 78.0182L5.54742 76.2505Z" fill="#9C182F"/>
<path d="M2.36433 74.2557L2.13629 74.4917L3.03998 75.3791L3.26801 75.1432L2.36433 74.2557Z" fill="#9C182F"/>
<path d="M3.28736 77.0271L2.43146 78.0332L2.67946 78.2477L3.53537 77.2416L3.28736 77.0271Z" fill="#9C182F"/>
<path d="M7.46414 73.9208L7.13806 73.9424L7.38244 77.6894L7.70852 77.6678L7.46414 73.9208Z" fill="#9C182F"/>
<path d="M15.0083 97.3664C14.6205 97.3664 14.2708 97.2131 14.0047 96.9449C13.7386 96.6767 13.5941 96.3165 13.5941 95.9333C13.5941 95.1439 14.2328 94.5078 15.0083 94.5078H15.0159C15.396 94.5078 15.7534 94.6611 16.0195 94.9293C16.2856 95.1976 16.43 95.5578 16.43 95.9409C16.43 96.3241 16.278 96.6843 16.0119 96.9526C15.7382 97.2208 15.3884 97.3664 15.0083 97.3664ZM13.7538 95.9333H13.9134C13.9134 96.2245 14.0275 96.5081 14.2328 96.715C14.438 96.9219 14.7118 97.0369 15.0083 97.0445C15.0083 97.0445 15.0083 97.0445 15.0159 97.0445C15.3048 97.0445 15.5785 96.9296 15.7838 96.7227C15.9891 96.5157 16.1031 96.2398 16.1107 95.9409C16.1107 95.6497 15.9967 95.3662 15.7914 95.1592C15.5861 94.9523 15.3124 94.8374 15.0159 94.8297C15.0159 94.8297 15.0159 94.8297 15.0083 94.8297C14.4076 94.8297 13.9134 95.3202 13.9134 95.9256L13.7538 95.9333Z" fill="#9C182F"/>
<path d="M13.0298 94.3448L12.825 94.6016L13.832 95.4177L14.0368 95.1609L13.0298 94.3448Z" fill="#9C182F"/>
<path d="M14.1863 96.9196L13.6055 97.9966L13.8925 98.154L14.4734 97.0771L14.1863 96.9196Z" fill="#9C182F"/>
<path d="M16.1408 96.447L16.0114 96.7495L17.4282 97.3651L17.5575 97.0626L16.1408 96.447Z" fill="#9C182F"/>
<path d="M14.6822 92.3624L14.3597 92.416L14.7218 94.6309L15.0443 94.5774L14.6822 92.3624Z" fill="#9C182F"/>
<path d="M18.3721 94.4662L15.9148 94.9375L15.9759 95.2611L18.4332 94.7899L18.3721 94.4662Z" fill="#9C182F"/>
<path d="M13.7157 96.1975L12.4775 96.4414L12.5402 96.7647L13.7784 96.5208L13.7157 96.1975Z" fill="#9C182F"/>
<path d="M15.5796 97.1636L15.2636 97.2476L15.5986 98.5292L15.9146 98.4453L15.5796 97.1636Z" fill="#9C182F"/>
<path d="M15.1051 92.02L14.9373 92.3027L18.1334 94.2314L18.3012 93.9487L15.1051 92.02Z" fill="#9C182F"/>
<path d="M37.5055 96.9835C37.247 96.9835 36.9961 96.9145 36.7756 96.7766C36.4487 96.5773 36.2206 96.2631 36.1293 95.8952C36.0381 95.5274 36.0989 95.1442 36.289 94.8146C36.692 94.1402 37.5663 93.9256 38.2354 94.3318C38.5623 94.5311 38.7904 94.8453 38.8816 95.2132C38.9729 95.581 38.912 95.9642 38.722 96.2938C38.5243 96.6233 38.2126 96.8532 37.8476 96.9452C37.7412 96.9682 37.6195 96.9835 37.5055 96.9835ZM37.5131 94.4468C37.1405 94.4468 36.7832 94.6384 36.5779 94.9756C36.4259 95.2285 36.3802 95.5274 36.4487 95.8109C36.5171 96.0945 36.692 96.3397 36.9429 96.493C37.1938 96.6463 37.4827 96.6923 37.7716 96.6233C38.0529 96.5543 38.2962 96.3781 38.4482 96.1252C38.6003 95.8722 38.6459 95.5734 38.5775 95.2898C38.5091 95.0062 38.3342 94.761 38.0833 94.6077C37.9008 94.5004 37.7032 94.4468 37.5131 94.4468Z" fill="#9C182F"/>
<path d="M36.3557 96.0007L35.1434 96.4512L35.2564 96.7603L36.4687 96.3098L36.3557 96.0007Z" fill="#9C182F"/>
<path d="M38.202 96.6098L37.9207 96.7773L38.5391 97.8328L38.8205 97.6652L38.202 96.6098Z" fill="#9C182F"/>
<path d="M39.7847 93.925L38.5323 94.8335L38.7232 95.101L39.9755 94.1925L39.7847 93.925Z" fill="#9C182F"/>
<path d="M34.2989 94.0061L34.1788 94.3125L36.25 95.137L36.37 94.8306L34.2989 94.0061Z" fill="#9C182F"/>
<path d="M37.988 91.8934L37.1271 94.2598L37.4339 94.3733L38.2948 92.0069L37.988 91.8934Z" fill="#9C182F"/>
<path d="M37.0707 96.8041L36.6428 98.0005L36.9502 98.1123L37.3781 96.9159L37.0707 96.8041Z" fill="#9C182F"/>
<path d="M38.8465 95.686L38.7557 96.0024L40.0187 96.3709L40.1095 96.0544L38.8465 95.686Z" fill="#9C182F"/>
<path d="M37.5129 91.6763L34.2298 93.4507L34.3842 93.7411L37.6672 91.9667L37.5129 91.6763Z" fill="#9C182F"/>
<path d="M49.062 77.594C48.5754 77.594 48.0965 77.3411 47.8304 76.8813C47.4426 76.1992 47.6707 75.3255 48.3474 74.927C49.024 74.5362 49.8908 74.7661 50.2861 75.4482C50.4762 75.7777 50.5294 76.1609 50.4306 76.5288C50.3317 76.8966 50.096 77.2032 49.7691 77.3948C49.5486 77.5327 49.3053 77.594 49.062 77.594ZM49.062 75.065C48.8796 75.065 48.6895 75.1109 48.5146 75.2106C47.99 75.5171 47.8151 76.1915 48.1117 76.7203C48.2561 76.9733 48.4918 77.1572 48.7731 77.2338C49.0544 77.3105 49.351 77.2721 49.6019 77.1265C50.1265 76.82 50.3013 76.1456 50.0048 75.6168C49.8071 75.2566 49.4422 75.065 49.062 75.065Z" fill="#9C182F"/>
<path d="M48.8932 77.408L48.7006 78.6958L49.0238 78.7449L49.2163 77.4571L48.8932 77.408Z" fill="#9C182F"/>
<path d="M51.525 76.0272L50.3096 76.0649L50.3197 76.3942L51.5351 76.3565L51.525 76.0272Z" fill="#9C182F"/>
<path d="M49.0653 73.334L48.741 73.374L48.9283 74.9178L49.2526 74.8778L49.0653 73.334Z" fill="#9C182F"/>
<path d="M46.378 78.5055L46.1729 78.2603L47.8905 76.8276L48.0957 77.0728L46.378 78.5055Z" fill="#9C182F"/>
<path d="M46.3546 73.761L46.1083 73.9775L47.7515 75.8776L47.9978 75.661L46.3546 73.761Z" fill="#9C182F"/>
<path d="M50.1786 76.9342L49.9333 77.1519L50.767 78.1065L51.0122 77.8888L50.1786 76.9342Z" fill="#9C182F"/>
<path d="M50.7532 74.1093L49.8248 75.0479L50.0562 75.2805L50.9845 74.342L50.7532 74.1093Z" fill="#9C182F"/>
<path d="M46.0836 74.3066L46.0452 78.0615L46.372 78.0649L46.4104 74.31L46.0836 74.3066Z" fill="#9C182F"/>
<path d="M39.749 63.1859L39.4888 63.3853L41.1907 65.6417L41.4508 65.4423L39.749 63.1859Z" fill="#9C182F"/>
<path d="M43.5548 68.8981L43.3134 69.1201L45.1728 71.1745L45.4142 70.9524L43.5548 68.8981Z" fill="#9C182F"/>
<path d="M27.9265 56.9665L27.8947 57.2944L30.9292 57.5932L30.9609 57.2653L27.9265 56.9665Z" fill="#9C182F"/>
<path d="M20.9942 57.1214L20.9432 57.4468L23.8869 57.9158L23.9379 57.5904L20.9942 57.1214Z" fill="#9C182F"/>
<path d="M13.0999 61.6534L11.9528 65.0322L12.262 65.139L13.4091 61.7601L13.0999 61.6534Z" fill="#9C182F"/>
<path d="M10.0459 68.0935L8.24976 71.1982L8.53205 71.3643L10.3281 68.2595L10.0459 68.0935Z" fill="#9C182F"/>
<path d="M8.794 80.8336L8.48706 80.9468L9.53913 83.8474L9.84607 83.7343L8.794 80.8336Z" fill="#9C182F"/>
<path d="M12.0498 86.4946L11.7367 86.5889L12.7263 89.9301L13.0395 89.8358L12.0498 86.4946Z" fill="#9C182F"/>
<path d="M24.2583 93.7532L21.1938 94.2852L21.2492 94.6098L24.3137 94.0779L24.2583 93.7532Z" fill="#9C182F"/>
<path d="M31.0844 94.0121L27.7385 94.4019L27.776 94.7291L31.1219 94.3393L31.0844 94.0121Z" fill="#9C182F"/>
<path d="M41.572 86.5061L39.405 89.2227L39.6596 89.4292L41.8266 86.7126L41.572 86.5061Z" fill="#9C182F"/>
<path d="M45.1726 80.6801L42.4556 83.4668L42.6886 83.6978L45.4056 80.9111L45.1726 80.6801Z" fill="#9C182F"/>
<path d="M53.1981 75.8542C53.1981 75.7852 53.1829 75.7163 53.1753 75.6473C53.1677 75.5783 53.1601 75.517 53.1525 75.448C53.1449 75.4097 53.1373 75.3791 53.1297 75.3407C53.1145 75.2411 53.0917 75.1491 53.0688 75.0495V75.0418C52.7115 73.67 51.6547 72.5205 50.2025 72.1449C49.2141 71.8844 48.1801 72.0146 47.283 72.5051L44.1962 74.2218C44.181 74.0456 44.1505 73.8693 44.1277 73.693L46.9028 72.0989L47.0625 71.984C48.0281 71.1103 48.3702 69.7538 47.9216 68.5276C47.3286 66.8799 45.5115 66.0292 43.8844 66.627C43.2382 66.8646 42.706 67.3091 42.3334 67.8838C42.2194 67.6616 42.1053 67.447 41.9837 67.2324L43.413 66.3817L43.4815 66.3358C44.9184 65.2858 45.253 63.2549 44.2114 61.8064C43.1698 60.358 41.155 60.0208 39.718 61.0707L38.2278 62.5958C38.129 62.5115 38.0301 62.4272 37.9313 62.3429L40.676 59.2237C41.0485 58.8022 41.3222 58.3194 41.4971 57.8059H41.5047C41.5731 57.5913 41.6187 57.3768 41.6492 57.1622C41.6568 57.1392 41.6568 57.1085 41.6644 57.0855C41.672 57.0012 41.6796 56.9169 41.6872 56.8326C41.6948 56.779 41.6948 56.7177 41.6948 56.664C41.6948 56.6104 41.6948 56.5567 41.6948 56.5107C41.6948 56.4494 41.6948 56.3805 41.6948 56.3191C41.6948 56.2885 41.6872 56.2578 41.6872 56.2272C41.6872 56.2195 41.6872 56.2195 41.6872 56.2119C41.6035 55.1772 41.1474 54.2193 40.3718 53.5219C39.5735 52.8015 38.5471 52.4413 37.4827 52.4949C36.4107 52.5562 35.4299 53.0237 34.7152 53.8284L34.7304 53.8437C34.3579 54.2576 34.069 54.7481 33.8865 55.2999L32.5864 59.2467C32.4876 59.2084 32.3811 59.1777 32.2823 59.1394L32.8449 57.2465L32.8753 57.0702C32.9589 56.2042 32.708 55.3612 32.1682 54.6868C31.6208 54.0123 30.8529 53.5985 29.9938 53.5065C28.2223 53.3226 26.6409 54.6254 26.466 56.4111L26.428 58.1815C26.1543 58.1815 25.8806 58.1891 25.6069 58.2044C25.949 57.576 26.0782 56.8556 25.949 56.1429C25.6449 54.4185 24.0026 53.2613 22.2996 53.5678C21.0223 53.7977 20.0263 54.7711 19.7602 56.0509L19.7373 59.4766C19.5701 59.5456 19.4028 59.6146 19.2356 59.6912L19.1671 56.1735C19.1367 55.1466 18.7338 54.1809 18.0191 53.4529C16.9623 52.3723 15.4493 52.0197 14.0959 52.3953C14.0883 52.3953 14.0883 52.3953 14.0807 52.4029C13.9895 52.4259 13.9059 52.4566 13.8222 52.4872C13.7842 52.5026 13.7462 52.5102 13.7082 52.5256C13.6474 52.5485 13.5941 52.5792 13.5409 52.6022C13.4725 52.6328 13.4041 52.6635 13.3432 52.6942C13.3204 52.7018 13.3052 52.7172 13.2824 52.7248C12.6134 53.0773 12.0583 53.6138 11.6782 54.2959C11.1536 55.2309 11.0167 56.3268 11.298 57.3614C11.5717 58.3501 12.1952 59.1931 13.0695 59.7295L16.0271 61.5305C15.8826 61.6378 15.7382 61.7451 15.5937 61.8601L12.8566 60.266L12.6818 60.1894C11.4501 59.7832 10.1196 60.1664 9.28324 61.1627C8.74343 61.8141 8.48493 62.6341 8.56096 63.4848C8.63699 64.3278 9.03234 65.0942 9.671 65.6383C10.2032 66.0905 10.8723 66.3358 11.5641 66.3664C11.4349 66.581 11.3056 66.8032 11.184 67.0255L9.73182 66.2055L9.65579 66.1671C8.87268 65.8146 7.99834 65.784 7.19242 66.0905C6.38651 66.3971 5.74786 67.0025 5.39812 67.7919C4.66823 69.4243 5.39051 71.3479 7.00995 72.0836L9.20721 72.6277C9.1844 72.7427 9.1692 72.8653 9.14639 72.9803L4.82029 72.0683C4.12082 71.9227 3.42134 71.9687 2.79029 72.1679C2.77509 72.1679 2.76749 72.1756 2.75228 72.1832C2.64584 72.2216 2.5394 72.2599 2.44056 72.2982C2.39494 72.3212 2.34932 72.3442 2.3037 72.3595C2.23528 72.3902 2.17445 72.4208 2.10602 72.4591C2.0376 72.4975 1.97677 72.5358 1.91595 72.5741C1.87033 72.6048 1.82472 72.6277 1.7867 72.6584C1.71827 72.7044 1.65745 72.7504 1.58902 72.804C1.55101 72.8347 1.51299 72.8653 1.47498 72.896C1.42176 72.942 1.36093 72.9956 1.30771 73.0416C1.26209 73.0799 1.21648 73.1259 1.17846 73.1642C1.14045 73.2025 1.09483 73.2485 1.05681 73.2945C1.00359 73.3481 0.950372 73.4095 0.904754 73.4708C0.874342 73.5014 0.851534 73.5397 0.828726 73.5704C0.775505 73.647 0.714679 73.716 0.669061 73.7926C0.661458 73.8003 0.653856 73.808 0.646253 73.8233C0.631047 73.8463 0.623444 73.8693 0.608238 73.8923C0.56262 73.9689 0.509399 74.0532 0.471384 74.1375C0.448575 74.1835 0.425766 74.2295 0.402957 74.2678C0.372545 74.3368 0.33453 74.4058 0.304118 74.4824C0.273706 74.5514 0.250898 74.6203 0.228089 74.6893C0.212883 74.743 0.190074 74.7889 0.174868 74.8426C0.144456 74.9346 0.121646 75.0342 0.0988367 75.1262C0.0912337 75.1491 0.0836317 75.1721 0.0760287 75.2028C0.0760287 75.2105 0.0760287 75.2181 0.0760287 75.2258C0.0532197 75.3331 0.038014 75.4404 0.022808 75.5477C0.022808 75.5783 0.0152034 75.6013 0.0152034 75.632C0.0152034 75.7086 0.00760171 75.8082 0.00760171 75.9079C0.00760171 75.9462 0 75.9845 0 76.0152C0 76.0995 0.00760171 76.1838 0.00760171 76.2681C0.00760171 76.3217 0.0152034 76.3677 0.0152034 76.4213C0.0228064 76.498 0.0380131 76.5669 0.0456161 76.6436C0.053219 76.6972 0.0608227 76.7585 0.0760287 76.8122C0.0760287 76.8275 0.0760274 76.8428 0.0836304 76.8505C0.0988364 76.9271 0.121647 76.9961 0.144456 77.0728C0.152059 77.1111 0.159662 77.1494 0.174868 77.1801C0.395355 77.9234 0.821121 78.5825 1.40655 79.0807C1.41415 79.0883 1.41415 79.0883 1.42176 79.096C1.50539 79.165 1.59663 79.234 1.68026 79.3029C1.70307 79.3183 1.71827 79.3336 1.74108 79.3489C1.76389 79.3642 1.7943 79.3872 1.81711 79.4026C1.87794 79.4409 1.93876 79.4715 1.99958 79.5099C2.02239 79.5252 2.0452 79.5405 2.07561 79.5558C2.17445 79.6095 2.28089 79.6631 2.37973 79.7091C2.39494 79.7168 2.40254 79.7244 2.41775 79.7244C3.17044 80.054 4.01437 80.146 4.8355 79.9697L9.1768 79.0347C9.19201 79.1113 9.19961 79.1803 9.21482 79.2569L6.98714 79.7704L6.81988 79.8241C6.03677 80.1766 5.43613 80.8204 5.13202 81.6327C4.8279 82.4451 4.8507 83.3264 5.20804 84.1158C5.93793 85.7482 7.84628 86.4763 9.46571 85.7405L11.2296 84.7826C11.3132 84.9358 11.4045 85.0891 11.4957 85.2424C10.7278 85.2194 9.98272 85.48 9.39729 85.9781C8.75103 86.5222 8.35568 87.2886 8.28725 88.1316C8.21883 88.9747 8.46972 89.8024 9.00954 90.4538C9.84587 91.4577 11.1764 91.8409 12.4081 91.4271L15.6698 89.9863C15.8218 90.1089 15.9739 90.2315 16.1335 90.3465L12.9555 92.2778C12.0887 92.8142 11.4577 93.6573 11.1916 94.6459C10.9103 95.6882 11.0395 96.7764 11.5717 97.7114C11.8911 98.2862 12.3396 98.7537 12.8719 99.1062C12.9555 99.1599 13.0467 99.2135 13.138 99.2595C13.1684 99.2748 13.1988 99.2902 13.2216 99.3055C13.2824 99.3361 13.3432 99.3591 13.4041 99.3898C13.4649 99.4204 13.5257 99.4511 13.5941 99.4741C13.6322 99.4894 13.6702 99.5048 13.7158 99.5124C13.7994 99.5431 13.8907 99.5737 13.9743 99.5967C13.9819 99.5967 13.9895 99.6044 13.9971 99.6044C14.3468 99.704 14.7042 99.75 15.0691 99.75C16.1031 99.75 17.1447 99.3515 17.9202 98.5468C18.6349 97.8187 19.0455 96.8454 19.0683 95.8185L19.1367 92.1398C19.3192 92.2241 19.4941 92.3084 19.6841 92.3851L20.0567 95.7878L20.0719 95.8721C20.338 97.152 21.334 98.1253 22.6113 98.3552C24.322 98.6617 25.9642 97.5045 26.2607 95.7801C26.3824 95.0981 26.2607 94.4083 25.9566 93.7952C26.0934 93.8029 26.2303 93.8029 26.3748 93.8029L26.4204 95.5196L26.428 95.5885C26.5116 96.4546 26.9298 97.2286 27.5988 97.7804C28.2679 98.3322 29.1042 98.5851 29.9558 98.4931C30.8149 98.4088 31.5828 97.9873 32.1302 97.3129C32.6776 96.6385 32.9285 95.7955 32.8373 94.9295L32.2138 92.8832C32.3051 92.8526 32.4039 92.8219 32.4952 92.7912L33.7877 96.6998C33.9853 97.3052 34.3123 97.834 34.738 98.2785C34.7532 98.3015 34.7761 98.3169 34.7913 98.3322C34.8065 98.3475 34.8141 98.3552 34.8293 98.3705C35.5364 99.1139 36.4791 99.5584 37.5055 99.612C37.5816 99.6197 37.65 99.6197 37.726 99.6197C38.7144 99.6197 39.6572 99.2595 40.3947 98.5851C41.193 97.8647 41.6644 96.8761 41.7176 95.7955C41.7784 94.7149 41.4135 93.6803 40.6988 92.8832L37.8933 89.6951C37.9617 89.6414 38.0225 89.5801 38.091 89.5265L39.5279 91.0592L39.6572 91.1742C41.1017 92.2241 43.1165 91.8869 44.1505 90.4385C45.1921 88.9823 44.8576 86.9514 43.4206 85.9091L41.8848 84.9588C41.9533 84.8362 42.0293 84.7136 42.0977 84.5833C42.4703 85.1657 43.0101 85.6179 43.6639 85.8632C45.2986 86.4609 47.1081 85.6103 47.7011 83.9625C48.1421 82.7363 47.8076 81.3798 46.842 80.5061L44.1049 78.4906C44.1353 78.2913 44.1581 78.0844 44.1809 77.8775L47.283 79.6095C48.1801 80.1 49.2141 80.2226 50.2025 79.9697C51.2365 79.7014 52.1109 79.0347 52.6507 78.1074C53.0384 77.4406 53.2209 76.6896 53.1981 75.9309C53.1981 75.9079 53.1981 75.8849 53.1981 75.8542ZM13.0771 56.8709C12.9251 56.3038 12.9935 55.7137 13.2824 55.2079C13.3965 55.001 13.5485 54.8247 13.7234 54.6714C13.7918 54.6101 13.8602 54.5565 13.9363 54.5028C13.9895 54.4645 14.0427 54.4338 14.0959 54.4032C14.1568 54.3649 14.2252 54.3342 14.286 54.3036C14.3544 54.2729 14.4305 54.2422 14.5065 54.2193C15.2668 53.9664 16.1335 54.1426 16.7266 54.7557C17.1143 55.1542 17.3348 55.6754 17.35 56.2272L17.4184 59.9518C17.4108 60.0514 17.426 60.1434 17.4336 60.2354C17.3576 60.1817 17.2816 60.1281 17.1903 60.0821L14.0351 58.1585C13.5637 57.8596 13.2216 57.4074 13.0771 56.8709ZM17.2968 92.0709L17.2284 95.7878C17.2132 96.3473 16.9927 96.8684 16.6049 97.2669C16.0043 97.88 15.1375 98.0486 14.3772 97.8034C14.3012 97.7804 14.2328 97.7497 14.1644 97.7191C14.0959 97.6884 14.0351 97.6578 13.9667 97.6195C13.9135 97.5888 13.8602 97.5581 13.8146 97.5198C13.7386 97.4662 13.6702 97.4125 13.6017 97.3512C13.4345 97.1979 13.2824 97.0217 13.1608 96.8148C12.8719 96.3089 12.8034 95.7188 12.9555 95.1517C13.0999 94.6152 13.4421 94.1631 13.9059 93.8718L17.0687 91.9482C17.1523 91.9022 17.236 91.8486 17.312 91.795C17.2968 91.8793 17.2892 91.9712 17.2968 92.0709ZM26.6028 92.2318C17.7302 92.2318 10.5073 84.9512 10.5073 76.0075C10.5073 65.4697 18.8022 59.7832 26.6028 59.7832C35.4755 59.7832 42.6984 67.0638 42.6984 76.0075C42.6984 84.9512 35.4755 92.2318 26.6028 92.2318ZM43.7628 69.0641L43.7932 69.0104C43.9453 68.7115 44.2038 68.4816 44.5155 68.3667C45.1997 68.1138 45.9524 68.474 46.2033 69.1637C46.3782 69.6465 46.2642 70.183 45.9068 70.5509L43.778 71.7694C43.6259 71.1486 43.4511 70.5432 43.2382 69.9531L43.7628 69.0641ZM40.8508 62.5345C41.1398 62.3429 41.4819 62.2739 41.824 62.3276C42.189 62.3889 42.5083 62.5881 42.7288 62.887C43.1698 63.5001 43.0405 64.3585 42.4475 64.8183L41.0029 65.6767C40.5543 65.0482 40.0677 64.4428 39.5431 63.8757L40.8508 62.5345ZM35.6352 55.867C35.8177 55.3075 36.1978 54.8554 36.7148 54.5948C37.2318 54.3342 37.8249 54.2882 38.3723 54.4645C39.2238 54.7481 39.7864 55.5068 39.8624 56.3575V56.3651C39.8701 56.4418 39.8624 56.5261 39.8624 56.6027C39.8624 56.6793 39.8625 56.7483 39.8549 56.825C39.8549 56.8403 39.8472 56.8633 39.8396 56.8786C39.7712 57.2848 39.5963 57.668 39.315 57.9822L36.4639 61.2163C35.772 60.7412 35.0422 60.3197 34.2819 59.9518L35.6352 55.867ZM29.8189 55.3535C30.1839 55.3918 30.5184 55.5681 30.7541 55.8593C30.9746 56.1275 31.081 56.4648 31.0658 56.8096L30.526 58.6336C29.7885 58.465 29.0434 58.3424 28.2755 58.2658L28.3059 56.572C28.3972 55.821 29.0738 55.2845 29.8189 55.3535ZM21.5849 56.3498C21.7217 55.8517 22.1171 55.4838 22.6265 55.3918C23.3412 55.2615 24.0254 55.7444 24.1547 56.4648C24.2155 56.7943 24.1471 57.1392 23.9646 57.4151L23.3944 58.4497C22.7785 58.557 22.1703 58.6873 21.5773 58.8559L21.5849 56.3498ZM11.8074 64.5271H11.777C11.4501 64.5424 11.1156 64.4351 10.8647 64.2205C10.5986 63.9906 10.4313 63.6764 10.4009 63.3162C10.3705 62.9637 10.4769 62.6188 10.705 62.3506C11.0319 61.952 11.5565 61.7911 12.0431 61.9214L14.1416 63.1476C13.6854 63.5921 13.2596 64.0596 12.8566 64.5577L11.8074 64.5271ZM7.70943 70.3593C7.06317 70.0221 6.77426 69.225 7.07838 68.5429C7.23044 68.2057 7.50415 67.9452 7.85388 67.8072C8.18841 67.6769 8.55336 67.6846 8.88028 67.8225L10.3781 68.6732C10.0816 69.363 9.83066 70.0834 9.62538 70.8267L7.70943 70.3593ZM4.45535 78.161C4.15123 78.23 3.83951 78.2147 3.54299 78.1534C3.41374 78.1227 3.28449 78.0844 3.16284 78.0307C3.12483 78.0154 3.08681 77.9924 3.0564 77.9771C2.96516 77.9311 2.88153 77.8928 2.7979 77.8315C2.75228 77.8008 2.71426 77.7625 2.67625 77.7318C2.60022 77.6782 2.53179 77.6169 2.46337 77.5556C2.44056 77.5326 2.42535 77.5096 2.40254 77.4866C2.32651 77.4023 2.25808 77.318 2.18966 77.2184C2.17445 77.1877 2.15925 77.1571 2.14404 77.1341C2.09082 77.0421 2.0376 76.9501 1.99958 76.8505C1.96917 76.7815 1.95397 76.7126 1.93116 76.6436C1.90835 76.5823 1.88554 76.5133 1.87794 76.452C1.86273 76.3677 1.85513 76.2834 1.84752 76.1991C1.83992 76.1378 1.83232 76.0765 1.83232 76.0152C1.83232 75.9462 1.83992 75.8849 1.84752 75.8236C1.85513 75.7469 1.85513 75.6626 1.87033 75.586C1.88554 75.5247 1.90835 75.471 1.92355 75.4097C1.94636 75.3331 1.96917 75.2488 1.99958 75.1798C2.02999 75.1032 2.07561 75.0265 2.12123 74.9499C2.15164 74.9039 2.17445 74.8503 2.20486 74.8043C2.25048 74.7353 2.31131 74.674 2.36453 74.605C2.40254 74.559 2.44056 74.513 2.47857 74.4671C2.52419 74.4211 2.57741 74.3828 2.63063 74.3368C2.69146 74.2908 2.74468 74.2371 2.8055 74.1912C2.85872 74.1528 2.91955 74.1299 2.97277 74.0992C3.04119 74.0609 3.10202 74.0226 3.17044 73.9919C3.25408 73.9536 3.34531 73.9306 3.43655 73.9076C3.75587 73.8156 4.10561 73.7926 4.44775 73.8693L8.94871 74.8196C8.9259 75.2105 8.9107 75.6013 8.9107 75.9998C8.9107 76.3983 8.9259 76.7892 8.95632 77.1801L4.45535 78.161ZM8.68261 84.0698C7.99074 84.3687 7.18482 84.0545 6.8807 83.3571C6.72864 83.0199 6.72104 82.6367 6.85029 82.2918C6.97194 81.9699 7.20003 81.7094 7.50415 81.5484L9.64819 81.0503C9.86107 81.763 10.112 82.4604 10.4009 83.1348L8.68261 84.0698ZM11.7922 89.6874C11.2904 89.8407 10.7506 89.6797 10.4085 89.2659C10.1804 88.9977 10.074 88.6528 10.1044 88.3003C10.1348 87.9477 10.302 87.6258 10.5681 87.3959C10.8266 87.1813 11.1536 87.074 11.4881 87.0894L12.811 87.1507C13.2292 87.6718 13.6702 88.1776 14.1416 88.6451L11.7922 89.6874ZM24.2535 94.5156C24.436 94.7992 24.5044 95.1364 24.4436 95.4659C24.3143 96.1863 23.6377 96.6691 22.9154 96.5389C22.3908 96.4469 21.9878 96.056 21.8662 95.5426L21.5925 93.0901C22.2615 93.2894 22.9534 93.4503 23.6529 93.573L24.2535 94.5156ZM31.005 95.2207C31.0354 95.9564 30.4956 96.5925 29.7581 96.6691C29.3931 96.7075 29.0282 96.6002 28.7393 96.3626C28.458 96.1327 28.2831 95.8108 28.2375 95.4506L28.1919 93.7492C28.9598 93.6802 29.7049 93.5576 30.4424 93.3967L31.005 95.2207ZM39.3226 94.1324C39.4899 94.324 39.6116 94.5386 39.7104 94.7608L39.6496 94.7838C40.0221 95.9334 39.3987 97.1673 38.2582 97.5428C37.1178 97.9183 35.8937 97.2899 35.5135 96.1403L34.183 92.1092C34.9585 91.7336 35.7036 91.3121 36.4107 90.8293L39.3226 94.1324ZM42.3638 87.4419C42.9645 87.8941 43.0937 88.7601 42.6527 89.3732C42.2194 89.9786 41.3983 90.1319 40.7824 89.7334L39.4139 88.2773C39.9385 87.7255 40.4251 87.1354 40.8736 86.5222L42.3638 87.4419ZM45.6331 81.924C46.0133 82.2918 46.1425 82.8436 45.9676 83.3418C45.7167 84.0315 44.9641 84.384 44.2798 84.1388C43.9681 84.0238 43.7096 83.7939 43.5499 83.4874L43.0557 82.5217C43.3142 81.8626 43.5347 81.1882 43.7172 80.4985L45.6331 81.924ZM51.3506 76.2527C51.343 76.3447 51.3278 76.429 51.3126 76.521C51.2669 76.7509 51.1909 76.9655 51.0693 77.1724C50.7727 77.6782 50.3013 78.0384 49.7463 78.184C49.2141 78.322 48.6515 78.253 48.1725 77.9924L44.9412 76.1914C44.8576 76.1378 44.774 76.0995 44.6903 76.0611C44.774 76.0228 44.8652 75.9768 44.9412 75.9309L48.1725 74.1375C48.6591 73.8693 49.2217 73.808 49.7539 73.9459C50.5827 74.1605 51.1605 74.8349 51.3278 75.6243C51.343 75.7009 51.3582 75.7776 51.3658 75.8542C51.3734 75.9309 51.3734 75.9998 51.3734 76.0765C51.3582 76.1224 51.3582 76.1838 51.3506 76.2527Z" fill="#9C182F"/>
<path d="M20.855 87.0505L19.4637 87.5333C19.2736 87.6023 19.1824 87.7326 19.1824 87.9242C19.1824 88.2001 19.2888 88.3457 19.5245 88.3687H33.59C33.8561 88.3687 34.0006 88.2231 34.0234 87.9165C34.0234 87.8016 33.955 87.6866 33.8181 87.5947L32.2215 87.0352V79.3407C32.2215 78.9805 32.2823 78.6586 32.3964 78.3828C32.4648 78.1145 32.556 77.9536 32.6777 77.8923V77.4937C31.2863 77.4937 29.9178 77.0876 28.5797 76.2675C27.2567 75.5165 26.0631 74.4895 25.0063 73.202L25.9566 71.3244C26.1999 71.8608 26.6789 72.4739 27.4164 73.156C27.7966 73.4779 28.1995 73.7385 28.6253 73.9301C29.051 74.183 29.4844 74.3056 29.9254 74.3056C31.0278 74.2826 31.8642 73.7155 32.4268 72.6119C32.9666 71.5313 33.2403 70.3817 33.2403 69.1708C33.1643 65.4616 31.1267 63.6222 27.1123 63.6452C25.356 63.6682 23.8886 64.1817 22.7102 65.201C21.5013 66.2126 20.8778 67.4848 20.855 69.0099V87.0505ZM25.0063 71.47V69.0022C24.9834 68.1056 25.0975 67.2242 25.3484 66.3352C25.6221 65.4769 26.1923 65.0324 27.0743 64.9787C27.9866 65.0324 28.6557 65.5075 29.0815 66.4195C29.5148 67.3009 29.7277 68.1592 29.7277 69.0022C29.7277 69.692 29.6441 70.4047 29.4844 71.1558C29.3856 71.4853 29.2411 71.7689 29.051 71.9988C28.8838 72.267 28.6329 72.3973 28.2984 72.3973C27.8954 72.3743 27.4696 72.0678 27.0134 71.4777C26.5725 70.9105 26.2532 70.3817 26.0555 69.8912H25.987L25.0063 71.47ZM28.0703 87.4337H25.0063V74.5202C25.9642 75.5855 26.9906 76.4361 28.0703 77.0799V87.4337Z" fill="#008996"/>
<path d="M71.2398 64.209C70.846 64.4145 69.9828 64.7037 68.8848 64.7037C66.4086 64.7037 64.7957 62.999 64.7957 60.4799C64.7957 57.9379 66.5298 56.0962 69.2028 56.0962C70.0812 56.0962 70.8687 56.3169 71.2701 56.5224L70.9293 57.6792C70.5734 57.4737 70.0131 57.2834 69.2028 57.2834C67.3173 57.2834 66.3026 58.6838 66.3026 60.4038C66.3026 62.314 67.5218 63.486 69.1498 63.486C69.9979 63.486 70.5583 63.2653 70.9823 63.0751L71.2398 64.209Z" fill="#18212E"/>
<path d="M73.9356 56.2637V59.7417C73.9356 61.0507 73.9204 61.8727 73.8523 63.0447H73.9053C74.3975 62.0553 74.6852 61.4769 75.2304 60.5256L77.7899 56.2637H79.5391V64.5135H78.1079V61.0203C78.1079 59.6732 78.1382 58.973 78.2064 57.6412H78.1534C77.6309 58.6991 77.2674 59.3612 76.7979 60.1983C76.0179 61.4769 75.1168 63.0599 74.2385 64.5135H72.5271V56.2637H73.9356Z" fill="#18212E"/>
<path d="M87.7626 56.2635V64.5133H86.286V57.4583H83.4691V59.5512C83.4691 61.8724 83.2495 63.4022 82.1818 64.1023C81.7729 64.4448 81.3185 64.6275 80.5537 64.6275L80.4023 63.4326C80.69 63.4022 81.0156 63.2652 81.2201 63.0901C81.9849 62.5422 82.0682 61.3854 82.0682 59.5436V56.2559H87.7626V56.2635Z" fill="#18212E"/>
<path d="M95.5471 62.5343C95.5471 63.2497 95.5774 63.9499 95.6834 64.5131H94.3279L94.2068 63.4704H94.1538C93.6994 64.1173 92.8135 64.6957 91.6397 64.6957C89.9738 64.6957 89.1333 63.5237 89.1333 62.3288C89.1333 60.3349 90.8977 59.2466 94.0705 59.2618V59.0943C94.0705 58.4094 93.8812 57.1841 92.2077 57.1841C91.4429 57.1841 90.6478 57.42 90.0723 57.8006L89.7315 56.8112C90.413 56.3698 91.3974 56.0806 92.4273 56.0806C94.9413 56.0806 95.5471 57.8006 95.5471 59.4597V62.5343ZM94.1008 60.3044C92.4727 60.274 90.6251 60.5632 90.6251 62.1614C90.6251 63.1355 91.2687 63.5922 92.0335 63.5922C93.1012 63.5922 93.7827 62.9072 94.0175 62.2147C94.0705 62.0625 94.1008 61.895 94.1008 61.7352V60.3044Z" fill="#18212E"/>
<path d="M64.6 71.5325C65.1755 71.4336 66.2432 71.3423 67.2124 71.3423C68.583 71.3423 70.8623 71.563 70.8623 73.4047C70.8623 74.4246 70.0824 75.0562 69.151 75.2617V75.2922C70.355 75.4596 71.2333 76.1445 71.2333 77.3394C71.2333 79.5008 68.5224 79.7748 66.9095 79.7748C65.9933 79.7748 65.0467 79.7063 64.6 79.6758V71.5325ZM66.0084 78.6941C66.4325 78.7473 66.7354 78.7626 67.2124 78.7626C68.212 78.7626 69.7037 78.5266 69.7037 77.3318C69.7037 76.1369 68.5149 75.8858 67.0913 75.8858H66.0084V78.6941ZM66.0236 74.8964H67.1443C68.2498 74.8964 69.3857 74.5692 69.3857 73.6026C69.3857 72.7807 68.6739 72.3925 67.1821 72.3925C66.6899 72.3925 66.387 72.423 66.0311 72.461V74.8964H66.0236Z" fill="#18212E"/>
<path d="M80.1157 75.4898C80.1157 78.5417 78.0106 79.8735 76.0267 79.8735C73.808 79.8735 72.0891 78.2373 72.0891 75.6268C72.0891 72.8642 73.8837 71.2432 76.163 71.2432C78.5255 71.2432 80.1157 72.9631 80.1157 75.4898ZM73.6035 75.5736C73.6035 77.3773 74.6409 78.7472 76.0948 78.7472C77.5184 78.7472 78.5861 77.4001 78.5861 75.5431C78.5861 74.1428 77.8895 72.3695 76.1251 72.3695C74.3683 72.3695 73.6035 74.0058 73.6035 75.5736Z" fill="#18212E"/>
<path d="M87.8017 71.4341V79.6839H86.3251V72.6289H83.5081V74.7218C83.5081 77.0431 83.2885 78.5728 82.2208 79.2729C81.8119 79.6154 81.3576 79.8057 80.5928 79.8057L80.4413 78.6108C80.7291 78.5804 81.0547 78.4434 81.2592 78.2684C82.024 77.7204 82.1073 76.5636 82.1073 74.7218V71.4341H87.8017Z" fill="#18212E"/>
<path d="M97.2444 75.4898C97.2444 78.5417 95.1393 79.8735 93.1553 79.8735C90.9366 79.8735 89.2177 78.2373 89.2177 75.6268C89.2177 72.8642 91.0124 71.2432 93.2916 71.2432C95.6542 71.2432 97.2444 72.9631 97.2444 75.4898ZM90.7322 75.5736C90.7322 77.3773 91.7696 78.7472 93.2235 78.7472C94.6471 78.7472 95.7148 77.4001 95.7148 75.5431C95.7148 74.1428 95.0181 72.3695 93.2538 72.3695C91.497 72.3695 90.7322 74.0058 90.7322 75.5736Z" fill="#18212E"/>
<path d="M103.704 71.4341V72.6442H100.145V79.6839H98.6679V71.4341H103.704Z" fill="#18212E"/>
<path d="M111.897 75.4898C111.897 78.5417 109.792 79.8735 107.808 79.8735C105.589 79.8735 103.87 78.2373 103.87 75.6268C103.87 72.8642 105.665 71.2432 107.944 71.2432C110.307 71.2432 111.897 72.9631 111.897 75.4898ZM105.385 75.5736C105.385 77.3773 106.422 78.7472 107.876 78.7472C109.3 78.7472 110.367 77.4001 110.367 75.5431C110.367 74.1428 109.671 72.3695 107.906 72.3695C106.149 72.3695 105.385 74.0058 105.385 75.5736Z" fill="#18212E"/>
<path d="M119.598 71.4341V78.5576L120.446 78.5728L120.363 82.3096H119.189L119.121 79.6839H113.442L113.373 82.3096H112.2L112.132 78.5728L112.828 78.5576C113.184 78.0324 113.457 77.4692 113.646 76.868C113.972 75.8482 114.123 74.7371 114.123 73.5803V71.4341H119.598ZM115.441 73.9379C115.441 75.0263 115.289 76.0841 115.017 77.005C114.85 77.5682 114.608 78.0781 114.358 78.5423H118.144V72.5757H115.448V73.9379H115.441Z" fill="#18212E"/>
<path d="M127.587 79.3794C127.193 79.5849 126.33 79.8741 125.232 79.8741C122.756 79.8741 121.143 78.1694 121.143 75.6503C121.143 73.1084 122.869 71.2666 125.55 71.2666C126.428 71.2666 127.208 71.4873 127.617 71.6928L127.276 72.8496C126.92 72.6441 126.36 72.4615 125.55 72.4615C123.664 72.4615 122.65 73.8618 122.65 75.5818C122.65 77.492 123.869 78.6641 125.497 78.6641C126.345 78.6641 126.905 78.4434 127.329 78.2531L127.587 79.3794Z" fill="#18212E"/>
<path d="M130.381 71.4341V75.011H130.737L133.826 71.4341H135.644L132.062 75.1709C133.387 75.3078 134.182 76.1907 134.826 77.6747C135.046 78.2227 135.333 79.0218 135.712 79.6839H134.152C133.932 79.3262 133.645 78.6793 133.387 77.9944C132.827 76.6625 132.062 76.0537 130.676 76.0537H130.389V79.6839H128.912V71.4341H130.381Z" fill="#18212E"/>
<path d="M137.984 71.4341V74.9121C137.984 76.2287 137.968 77.0431 137.9 78.2227H137.953C138.445 77.2333 138.733 76.6549 139.278 75.7036L141.838 71.4417H143.587V79.6915H142.163V76.1983C142.163 74.8512 142.194 74.151 142.262 72.8192H142.209C141.686 73.8771 141.323 74.5392 140.853 75.3763C140.073 76.6549 139.172 78.2379 138.294 79.6915H136.583V71.4341H137.984Z" fill="#18212E"/>
<path d="M146.275 71.4341L147.449 73.2073C147.752 73.664 148.009 74.0978 148.282 74.5544H148.335C148.608 74.0597 148.88 73.6335 149.153 73.1921L150.304 71.4341H151.917L149.115 75.422L152 79.6839H150.296L149.092 77.8269C148.767 77.3475 148.502 76.8908 148.214 76.3962H148.184C147.911 76.9061 147.623 77.3323 147.32 77.8269L146.131 79.6839H144.488L147.404 75.4753L144.625 71.4341H146.275Z" fill="#18212E"/>
<path d="M66.2903 86.604V89.9298H70.19V86.604H71.6666V94.8538H70.19V91.1171H66.2903V94.8538H64.8137V86.604H66.2903Z" fill="#18212E"/>
<path d="M74.5139 90.9952C74.5442 93.0272 75.839 93.8568 77.3308 93.8568C78.3985 93.8568 79.0421 93.6665 79.6025 93.4306L79.8599 94.5037C79.3375 94.7396 78.4363 95.0288 77.1263 95.0288C74.5972 95.0288 73.0903 93.3393 73.0903 90.8506C73.0903 88.362 74.5517 86.3984 76.937 86.3984C79.6176 86.3984 80.3294 88.7653 80.3294 90.2874C80.3294 90.5919 80.2991 90.8354 80.2764 90.9876H74.5139V90.9952ZM78.8907 89.9221C78.9058 88.9708 78.4969 87.4867 76.8234 87.4867C75.3165 87.4867 74.6502 88.8871 74.5366 89.9221H78.8907Z" fill="#18212E"/>
<path d="M88.1668 86.604V93.7275L89.0149 93.7427L88.9316 97.4795H87.7579L87.6897 94.8538H82.0105L81.9423 97.4795H80.7686L80.7004 93.7427L81.3971 93.7275C81.753 93.2024 82.0256 92.6392 82.2149 92.0379C82.5405 91.0181 82.692 89.907 82.692 88.7502V86.604H88.1668ZM84.0095 89.1079C84.0095 90.1962 83.8581 91.254 83.5855 92.1749C83.4189 92.7381 83.1766 93.248 82.9267 93.7123H86.7129V87.7456H84.0171V89.1079H84.0095Z" fill="#18212E"/>
<path d="M90.3703 89.2902C90.3703 88.2323 90.34 87.3799 90.3022 86.596H91.6425L91.7106 88.0116H91.7409C92.3543 87.007 93.316 86.4058 94.6563 86.4058C96.6402 86.4058 98.132 88.0953 98.132 90.5992C98.132 93.5673 96.3373 95.0285 94.3988 95.0285C93.316 95.0285 92.3619 94.5491 91.8697 93.7347H91.8394V98.2173H90.3628V89.2902H90.3703ZM91.8469 91.4896C91.8469 91.7103 91.8772 91.9158 91.9151 92.1061C92.1877 93.1487 93.0888 93.8641 94.1565 93.8641C95.7316 93.8641 96.6478 92.5703 96.6478 90.6753C96.6478 89.0238 95.7846 87.6082 94.2019 87.6082C93.1872 87.6082 92.2331 88.3388 91.9454 89.4652C91.8924 89.6555 91.8469 89.8762 91.8469 90.0817V91.4896Z" fill="#18212E"/>
</g>
</svg>
